<svg xmlns="http://www.w3.org/2000/svg" aria-hidden="true">
  <symbol id="schedule" viewBox="0 0 24 24"><circle cx="12" cy="12" r="8.25" fill="none" stroke="currentColor" stroke-width="1.8"/><path d="M12 7.5v4.8l3.2 1.9" fill="none" stroke="currentColor" stroke-linecap="round" stroke-linejoin="round" stroke-width="1.8"/></symbol>
  <symbol id="evolution" viewBox="0 0 24 24"><circle cx="5" cy="17" r="2" fill="none" stroke="currentColor" stroke-width="1.8"/><circle cx="12" cy="12" r="2" fill="none" stroke="currentColor" stroke-width="1.8"/><circle cx="19" cy="7" r="2" fill="none" stroke="currentColor" stroke-width="1.8"/><path d="m6.7 15.8 3.6-2.6m3.4-2.4 3.6-2.6" fill="none" stroke="currentColor" stroke-linecap="round" stroke-width="1.8"/></symbol>
  <symbol id="agent" viewBox="0 0 24 24"><rect x="5" y="7" width="14" height="11" rx="3" fill="none" stroke="currentColor" stroke-width="1.8"/><path d="M12 4v3m-3.5 4.6h.01m6.99 0h.01M9 15c1.8 1.2 4.2 1.2 6 0" fill="none" stroke="currentColor" stroke-linecap="round" stroke-width="1.8"/><path d="M3.2 12H5m14 0h1.8" fill="none" stroke="currentColor" stroke-linecap="round" stroke-width="1.8"/></symbol>
  <symbol id="mvp" viewBox="0 0 24 24"><rect x="3.5" y="4.5" width="17" height="14" rx="2" fill="none" stroke="currentColor" stroke-width="1.8"/><path d="M3.5 8.5h17M7 6.5h.01m3 0h.01M9 14l2 2 4-4" fill="none" stroke="currentColor" stroke-linecap="round" stroke-linejoin="round" stroke-width="1.8"/></symbol>
  <symbol id="eye" viewBox="0 0 24 24"><path d="M3.5 12s3.1-5.1 8.5-5.1S20.5 12 20.5 12s-3.1 5.1-8.5 5.1S3.5 12 3.5 12Z" fill="none" stroke="currentColor" stroke-linejoin="round" stroke-width="1.8"/><circle cx="12" cy="12" r="2.5" fill="none" stroke="currentColor" stroke-width="1.8"/></symbol>
  <symbol id="flask" viewBox="0 0 24 24"><path d="M9 3.8h6m-4.5 0v5.6l-5.1 7.6A2.1 2.1 0 0 0 7.1 20h9.8a2.1 2.1 0 0 0 1.7-3l-5.1-7.6V3.8" fill="none" stroke="currentColor" stroke-linecap="round" stroke-linejoin="round" stroke-width="1.8"/><path d="M7.8 15h8.4" fill="none" stroke="currentColor" stroke-linecap="round" stroke-width="1.8"/></symbol>
  <symbol id="checklist" viewBox="0 0 24 24"><rect x="5" y="3.5" width="14" height="17" rx="2" fill="none" stroke="currentColor" stroke-width="1.8"/><path d="m8 9 1.4 1.4L12 7.8M13.5 9h2.2m-7.7 5 1.4 1.4 2.6-2.6m1.5 1.2h2.2" fill="none" stroke="currentColor" stroke-linecap="round" stroke-linejoin="round" stroke-width="1.8"/></symbol>
  <symbol id="lecturer" viewBox="0 0 24 24"><circle cx="8.5" cy="7" r="2.5" fill="none" stroke="currentColor" stroke-width="1.8"/><path d="M4.5 18.5c.5-3 2-4.7 4-4.7s3.5 1.7 4 4.7M14.5 6h5v9h-5m0-9v9m0-4.5h5" fill="none" stroke="currentColor" stroke-linecap="round" stroke-linejoin="round" stroke-width="1.8"/></symbol>
</svg>
